<?xml version="1.0" encoding="UTF-8"?>
<svg xmlns="http://www.w3.org/2000/svg" xmlns:xlink="http://www.w3.org/1999/xlink" width="20px" height="20px" viewBox="0 0 20 20" version="1.1">
<g id="surface1">
<path style=" stroke:none;fill-rule:nonzero;fill:rgb(0%,0%,0%);fill-opacity:1;" d="M 5.574219 13.574219 C 5.339844 13.808594 5.339844 14.191406 5.574219 14.425781 C 5.808594 14.660156 6.191406 14.660156 6.425781 14.425781 Z M 10.425781 10.425781 C 10.660156 10.191406 10.660156 9.808594 10.425781 9.574219 C 10.191406 9.339844 9.808594 9.339844 9.574219 9.574219 Z M 9.574219 9.574219 C 9.339844 9.808594 9.339844 10.191406 9.574219 10.425781 C 9.808594 10.660156 10.191406 10.660156 10.425781 10.425781 Z M 14.425781 6.425781 C 14.660156 6.191406 14.660156 5.808594 14.425781 5.574219 C 14.191406 5.339844 13.808594 5.339844 13.574219 5.574219 Z M 10.425781 9.574219 C 10.191406 9.339844 9.808594 9.339844 9.574219 9.574219 C 9.339844 9.808594 9.339844 10.191406 9.574219 10.425781 Z M 13.574219 14.425781 C 13.808594 14.660156 14.191406 14.660156 14.425781 14.425781 C 14.660156 14.191406 14.660156 13.808594 14.425781 13.574219 Z M 9.574219 10.425781 C 9.808594 10.660156 10.191406 10.660156 10.425781 10.425781 C 10.660156 10.191406 10.660156 9.808594 10.425781 9.574219 Z M 6.425781 5.574219 C 6.191406 5.339844 5.808594 5.339844 5.574219 5.574219 C 5.339844 5.808594 5.339844 6.191406 5.574219 6.425781 Z M 6.425781 14.425781 L 10.425781 10.425781 L 9.574219 9.574219 L 5.574219 13.574219 Z M 10.425781 10.425781 L 14.425781 6.425781 L 13.574219 5.574219 L 9.574219 9.574219 Z M 9.574219 10.425781 L 13.574219 14.425781 L 14.425781 13.574219 L 10.425781 9.574219 Z M 10.425781 9.574219 L 6.425781 5.574219 L 5.574219 6.425781 L 9.574219 10.425781 Z M 10.425781 9.574219 "/>
</g>
</svg>
