<?xml version="1.0" standalone="no"?>
<!DOCTYPE svg PUBLIC "-//W3C//DTD SVG 20010904//EN"
 "http://www.w3.org/TR/2001/REC-SVG-20010904/DTD/svg10.dtd">
<svg version="1.0" xmlns="http://www.w3.org/2000/svg"
 width="700.000000pt" height="700.000000pt" viewBox="0 0 700.000000 700.000000"
 preserveAspectRatio="xMidYMid meet">
<metadata>
Created by potrace 1.14, written by Peter Selinger 2001-2017
</metadata>
<g transform="translate(0.000000,700.000000) scale(0.100000,-0.100000)"
fill="#000000" stroke="none">
<path d="M3298 5593 c-211 -366 -873 -1514 -1373 -2378 -172 -297 -448 -776
-615 -1065 -167 -289 -393 -680 -502 -869 -109 -189 -197 -345 -195 -347 2 -2
1303 -3 2891 -2 l2886 3 -1440 2495 c-792 1372 -1444 2496 -1449 2498 -5 2
-96 -149 -203 -335z m544 -539 c3 -3 -11 -47 -32 -97 -62 -151 -90 -220 -105
-252 -7 -16 -30 -70 -50 -120 -49 -119 -343 -819 -405 -965 -101 -237 -120
-284 -120 -292 0 -4 250 119 556 273 305 155 558 278 561 276 6 -7 -9 -73 -70
-307 -26 -96 -73 -281 -106 -410 -67 -264 -160 -626 -197 -770 -14 -52 -33
-129 -43 -170 -10 -41 -35 -137 -55 -212 -20 -76 -36 -144 -36 -151 0 -14 25
-11 233 28 42 8 89 15 102 15 l25 0 -35 -47 c-19 -27 -111 -147 -205 -268 -94
-121 -211 -273 -261 -337 -50 -65 -92 -118 -94 -118 -1 0 -13 26 -25 58 -13
31 -29 71 -36 87 -7 17 -61 152 -119 300 -200 506 -181 455 -166 455 5 0 74
-31 153 -70 78 -38 148 -70 154 -70 7 0 14 31 18 77 4 43 14 150 21 238 8 88
24 255 35 370 34 355 51 557 47 562 -4 4 -81 -42 -754 -453 -237 -145 -436
-264 -442 -264 -14 0 -14 1 3 52 13 38 72 228 177 573 17 55 39 127 50 160 18
57 103 336 156 515 14 47 31 103 39 125 17 50 124 400 134 440 5 17 40 131 78
255 39 124 89 288 112 365 23 77 44 143 47 148 5 8 647 10 655 1z"/>
</g>
</svg>
